<svg width="375" height="145" viewBox="0 0 375 145" fill="none" xmlns="http://www.w3.org/2000/svg">
<path d="M0 68.5431H12.1465L16.9874 28.2262H31.1143L39.7401 76.2371H49.29V0H60.9964V64.5422H64.8251V24.577H94.3111V78.4794H118.912L133.435 9.62856L131.675 4.83626H150.687L148.794 9.3208L159.664 56.4524H176.432V36.0082L175.508 34.2935H185.058L184.089 36.0082V64.5422H204.597V16.5312H231.047V72.1922H254.592L260.973 29.2814L259.697 26.2038H274.528L273.295 29.0616L276.728 54.0343H287.422V2.41813H298.512V62.9154H311.055V20.5761H339.309V68.5431H345.03L347.362 38.9979H355.812L358.761 68.5431H375V145H0V68.5431Z" fill="#DF45A7"/>
</svg>
